# xmcd CD database file
#
# Track frame offsets:
#	182
#	14450
#	30850
#	45497
#	60332
#	74590
#	87317
#	102325
#	120092
#	137662
#
# Disc length: 2126 seconds
#
# Revision: 3
# Processed by: cddbd v1.5.2PL0 Copyright (c) Steve Scherf et al.
# Submitted via: CDex 1.79
#
DISCID=75084c0a
DTITLE=Corbin/Hanner - Just Another Hill
DYEAR=1992
DGENRE=Country
TTITLE0=Just Another Hill
TTITLE1=Any Road
TTITLE2=These Walls Are Fallin' Down
TTITLE3=The Real You
TTITLE4=If Wishes Were Horses
TTITLE5=I Could Be The One
TTITLE6=I Will Stand By You
TTITLE7=Everyone Knows I'm Yours
TTITLE8=Her Wicked Ways
TTITLE9=Like A Dream
EXTD=YEAR: 1992
EXTT0=
EXTT1=
EXTT2=
EXTT3=
EXTT4=
EXTT5=
EXTT6=
EXTT7=
EXTT8=
EXTT9=
PLAYORDER=
